<svg width="191" height="191" viewBox="0 0 191 191" fill="none" xmlns="http://www.w3.org/2000/svg">
<path d="M154.651 78.3932L137.618 179.689L57.3643 178.806L40.8755 71.421L83.377 131.375L94.9277 45.5554L112.892 124.978L154.651 74.2127V78.3932Z" fill="#FFE100"/>
<path d="M159.197 61.6202C156.605 59.937 153.126 60.6543 151.428 63.2252L129.636 96.2151C124.481 104.093 119.294 111.953 114.146 119.832C113.37 115.853 112.587 111.88 111.807 107.901L107.107 84.7678L102.413 61.634C100.909 53.912 99.3549 46.1993 97.9548 38.4636L97.9454 38.3992C97.8059 37.6219 97.1602 36.9964 96.3254 36.909C95.3155 36.8031 94.4145 37.5299 94.308 38.5325C93.4685 46.5257 92.4704 54.4962 91.5008 62.4712C90.5311 70.4459 89.4408 78.4071 88.3009 86.3591C87.1586 94.3111 85.9052 102.254 84.6068 110.187C83.824 115.127 82.9868 120.057 82.1519 124.987C80.144 121.699 78.1314 118.415 76.0975 115.145C72.5264 109.346 68.9173 103.574 65.2279 97.8524C57.8941 86.3774 50.2717 75.0956 42.6398 63.814L42.5807 63.7265C41.5968 62.2734 39.8113 61.4546 37.9595 61.7721C35.4502 62.2044 33.7687 64.573 34.2062 67.061L36.7439 81.4978L39.4021 95.8839C41.1404 105.478 43.0584 114.975 44.9315 124.422C45.8515 129.159 46.8519 133.827 47.8121 138.496C48.7817 143.158 49.7277 147.823 50.7352 152.412C52.6982 161.625 54.6706 170.727 56.6832 179.602L76.7857 180.684L97.3825 181.705C104.319 182.035 111.315 182.357 118.362 182.605C125.405 182.864 132.489 183.148 139.595 183.309C141.563 183.354 143.318 181.966 143.661 179.988L143.694 179.791C145.312 170.417 147 161.059 148.528 151.675C150.072 142.294 151.69 132.926 153.171 123.534C154.694 114.152 156.146 104.756 157.584 95.3596C158.989 85.959 160.367 76.5536 161.68 67.1392L161.694 67.0335C161.975 64.9729 161.077 62.8391 159.206 61.6202H159.197ZM142.523 122.007C141.253 131.427 140.12 140.867 138.91 150.296C137.834 158.588 136.878 166.899 135.894 175.205C130.462 175.37 125.015 175.595 119.535 175.809C112.824 176.057 106.06 176.377 99.2296 176.709L57.3596 178.81C56.3355 168.877 55.2642 159.168 54.1834 149.569L52.5397 135.267C51.9792 130.529 51.4636 125.792 50.8606 121.124C49.6875 111.76 48.5641 102.442 47.2658 93.2256L46.3056 86.2672C49.9926 91.8414 53.7151 97.3878 57.5086 102.893C61.3541 108.513 65.2753 114.083 69.2319 119.629C73.1673 125.194 77.1665 130.714 81.161 136.236L81.3171 136.459C81.861 137.202 82.7148 137.714 83.7081 137.799C85.5244 137.956 87.1255 136.627 87.2887 134.824C87.9982 126.818 88.6391 118.801 89.403 110.799C90.1314 102.792 90.9072 94.7939 91.794 86.8097C92.6785 78.8257 93.6222 70.846 94.6793 62.8803C95.176 59.1597 95.6632 55.4344 96.1669 51.7137C96.673 55.2825 97.1697 58.8562 97.6758 62.425L100.802 85.8164L103.924 109.208C105.019 116.994 106.086 124.79 107.275 132.561C107.455 133.729 108.105 134.838 109.158 135.57C111.208 136.996 114.039 136.504 115.482 134.471L115.574 134.338C123.187 123.575 130.684 112.735 138.247 101.936L147.024 89.2795C146.811 90.7696 146.589 92.2597 146.374 93.7499C145.061 103.164 143.758 112.579 142.528 122.007H142.523Z" fill="#061049"/>
<path d="M169.995 42.3499C170.024 40.9609 169.941 39.3144 169.333 37.7046C168.739 36.1088 167.602 34.6139 166.067 33.662C164.532 32.7191 162.699 32.1994 160.866 32.1167C153.23 31.7488 146.925 39.9675 149.514 46.1027C149.987 47.5743 150.72 48.8392 151.406 49.9844C152.121 51.1341 152.877 52.1599 153.679 53.2222C154.488 54.2707 155.346 55.4252 156.51 56.5197C157.664 57.5775 159.178 58.5388 160.862 58.856C162.536 59.2102 164.364 58.9434 165.894 58.1387C167.441 57.3476 168.614 55.9402 169.227 54.3904C169.853 52.822 169.936 51.1893 169.912 49.8143C169.875 48.4206 169.815 47.2616 169.849 46.0982C169.86 44.9345 169.964 43.7478 169.99 42.3499H169.995ZM167.443 48.7977C166.573 49.4509 165.402 49.6762 164.461 49.6624C163.51 49.6624 162.81 49.5016 162.304 49.5475C161.789 49.5842 161.403 49.7498 160.866 50.1085C160.337 50.4212 159.637 50.9502 158.745 51.171C157.865 51.4238 156.843 51.3319 156.087 50.8306C155.327 50.3385 154.826 49.5061 154.696 48.6276C154.533 47.7492 154.831 46.8155 155.304 46.0934C155.791 45.3576 156.448 44.8608 156.983 44.5021C157.534 44.148 157.953 43.8537 158.421 43.6697C158.889 43.4858 159.357 43.4444 159.752 43.4214C160.162 43.4169 160.486 43.3984 160.866 43.311L162.141 43.0397C162.647 42.9246 163.39 42.6718 164.364 42.6303C165.32 42.5751 166.493 42.7867 167.365 43.4259C168.243 44.0515 168.78 45.0586 168.799 46.0934C168.827 47.1237 168.335 48.1586 167.448 48.7932L167.443 48.7977Z" fill="#061049"/>
<path d="M37.976 58.1387C39.5227 57.3476 40.6958 55.9402 41.3083 54.3904C41.935 52.822 42.0178 51.1893 41.9942 49.8143C41.9563 48.4206 41.8972 47.2616 41.9303 46.0982C41.9445 44.9345 42.0462 43.7478 42.0746 42.3499C42.1006 40.9609 42.0178 39.3144 41.41 37.7046C40.8164 36.1088 39.6788 34.6139 38.1439 33.662C36.6091 32.7191 34.7762 32.1994 32.9433 32.1167C25.3067 31.7488 19.0016 39.9675 21.5913 46.1027C22.0643 47.5743 22.7975 48.8392 23.4833 49.9844C24.1975 51.1341 24.9543 52.1599 25.7561 53.2222C26.5649 54.2707 27.4234 55.4252 28.587 56.5197C29.7411 57.5775 31.2547 58.5388 32.9386 58.856C34.613 59.2102 36.4412 58.9434 37.9713 58.1387H37.976ZM30.8243 51.1756C29.9421 51.4286 28.9204 51.3366 28.166 50.8351C27.4045 50.343 26.9031 49.5106 26.773 48.6321C26.6098 47.7537 26.9078 46.8203 27.3808 46.0982C27.868 45.3621 28.5278 44.8656 29.06 44.5069C29.6134 44.1527 30.0296 43.8582 30.4979 43.6744C30.9662 43.4903 31.4344 43.4491 31.8294 43.4259C32.2385 43.4214 32.5625 43.4029 32.9433 43.3157L34.218 43.0442C34.7241 42.9293 35.4668 42.6763 36.4411 42.6348C37.3966 42.5796 38.5696 42.7912 39.4423 43.4306C40.3197 44.056 40.859 45.0634 40.8755 46.0982C40.9039 47.1282 40.412 48.1631 39.5275 48.7977C38.6548 49.4509 37.4841 49.6762 36.5428 49.6624C35.5921 49.6624 34.8921 49.5016 34.3859 49.5475C33.8704 49.5842 33.4873 49.7498 32.948 50.1085C32.4183 50.4212 31.7182 50.9502 30.829 51.171L30.8243 51.1756Z" fill="#061049"/>
<path d="M85.8626 25.8796C86.5769 27.0293 87.3337 28.0549 88.1354 29.1174C88.949 30.166 89.8027 31.3204 90.9663 32.4149C92.1204 33.4727 93.6341 34.4341 95.3179 34.7513C96.9924 35.1054 98.8205 34.8387 100.351 34.0339C101.897 33.2429 103.07 31.8354 103.683 30.2856C104.31 28.7173 104.392 27.0845 104.369 25.7095C104.333 24.3158 104.272 23.1569 104.305 21.9934C104.319 20.8297 104.421 19.6431 104.449 18.2451C104.475 16.8561 104.392 15.2096 103.785 13.5998C103.191 12.004 102.053 10.5092 100.519 9.55727C98.9837 8.61439 97.1508 8.09461 95.3179 8.01193C87.6813 7.64402 81.3762 15.8628 83.9659 21.9979C84.4389 23.4696 85.1721 24.7344 85.8579 25.8796H85.8626ZM89.7554 21.9979C90.2426 21.2621 90.9025 20.7653 91.4346 20.4066C91.988 20.0524 92.4043 19.7582 92.8725 19.5741C93.3408 19.3903 93.8114 19.3488 94.204 19.3258C94.6131 19.3211 94.9372 19.3029 95.3179 19.2155L96.5927 18.9442C97.0988 18.8291 97.8414 18.576 98.8157 18.5348C99.7712 18.4796 100.947 18.6912 101.817 19.3303C102.694 19.9558 103.234 20.9631 103.25 21.9979C103.279 23.0282 102.787 24.063 101.902 24.6977C101.029 25.3506 99.8587 25.5761 98.9175 25.5622C97.9667 25.5622 97.2667 25.4013 96.7606 25.4473C96.245 25.484 95.8619 25.6496 95.3227 26.0083C94.7929 26.3212 94.0929 26.85 93.2036 27.0708C92.3215 27.3238 91.2998 27.2316 90.5453 26.7303C89.7838 26.2383 89.2824 25.4058 89.1523 24.5274C88.9892 23.6489 89.2872 22.7155 89.7602 21.9934L89.7554 21.9979Z" fill="#061049"/>
</svg>
